<?xml version="1.0" encoding="utf-8"?>
<!-- Generator: Adobe Illustrator 26.1.0, SVG Export Plug-In . SVG Version: 6.00 Build 0)  -->
<svg version="1.1" id="Layer_1" xmlns="http://www.w3.org/2000/svg" xmlns:xlink="http://www.w3.org/1999/xlink" x="0px" y="0px"
	 viewBox="0 0 267.1 79.7" style="enable-background:new 0 0 267.1 79.7;" xml:space="preserve">
<style type="text/css">
	.st0{fill:#663390;}
	.st1{fill:#F7AC1F;}
	.st2{fill:#99C53E;}
	.st3{fill:#FFFFFF;}
</style>
<g>
	<path class="st0" d="M59.6,15.7h5.5h5.5v3.9c3.6-3.7,7.8-5.5,12.7-5.5c5.4,0,9.9,2,13.6,6l0.9,1l0.9-1c3.8-4,8.8-6,14.8-6
		c6,0,10.8,1.8,14.3,5.4c3.5,3.6,5.3,8.5,5.3,14.7v28.5h-5.9h-5.9V36.1c0-3.8-0.8-6.8-2.4-8.7c-1.6-2-3.9-3-7-3
		c-3.3,0-5.7,1.1-7.3,3.4c-1.6,2.3-2.4,5.7-2.4,10.2v24.8h-5.9h-5.9V37.4c0-4.3-0.8-7.5-2.5-9.7c-1.6-2.2-4-3.3-7.2-3.3
		c-3.2,0-5.5,1.1-7.1,3.4c-1.6,2.3-2.4,5.7-2.4,10.2v24.8h-5.9h-5.9V15.7z"/>
	<path class="st0" d="M142.6,0h5.9h5.9v19c3.6-3.3,7.9-4.9,12.8-4.9c5.8,0,10.4,1.9,13.8,5.6c3.4,3.8,5.1,8.8,5.1,15.2v27.8h-5.9
		h-5.9V37.5c0-4.3-0.8-7.5-2.5-9.8c-1.7-2.2-4.1-3.3-7.3-3.3c-3.4,0-5.9,1.1-7.6,3.4c-1.7,2.3-2.5,5.7-2.5,10.2v24.8h-5.9h-5.9V0z"
		/>
	<path class="st0" d="M255.3,15.7h5.9h5.9V60c0,6.2-1.6,10.8-4.7,14c-2.7,2.7-6.7,4.3-11.8,4.6c0,0-1.6,0-14.3,0l4.7-11.3
		c12.7,0,9.5,0,9.6,0c1.7,0,3-0.5,3.6-1.5c0.7-1,1.1-3,1.1-5.8V15.7z M255.4,0h11.8v10.4h-11.8V0z"/>
</g>
<path class="st1" d="M228.1,67.3H9.9c-3.1,0-5.7,2.5-5.7,5.6c0,3.1-1.4,5.6,1.7,5.6h217.4L228.1,67.3z"/>
<polygon class="st2" points="231.1,67.3 226.4,78.6 233.1,78.6 237.8,67.3 "/>
<polygon class="st2" points="5,67.3 0.3,78.6 8.5,78.6 13.3,67.3 "/>
<rect x="39.9" y="15.7" class="st0" width="10.8" height="47.1"/>
<g>
	<polygon class="st0" points="222.9,43.1 218.4,38.6 222.6,37.1 213.6,34.7 215.9,43.8 217.5,39.5 222,44 	"/>
	<g>
		<path class="st1" d="M218.1,48.9c-5.3,0-9.7-4.3-9.7-9.7s4.3-9.7,9.7-9.7c5.3,0,9.7,4.3,9.7,9.7S223.4,48.9,218.1,48.9z
			 M218.1,31.1c-4.5,0-8.2,3.7-8.2,8.2s3.7,8.2,8.2,8.2c4.5,0,8.2-3.7,8.2-8.2S222.6,31.1,218.1,31.1z"/>
	</g>
</g>
<path class="st0" d="M218,14.9c-13.4,0-24.3,10.9-24.3,24.3s10.9,24.3,24.3,24.3s24.3-10.9,24.3-24.3S231.4,14.9,218,14.9z
	 M218,54.9c-8.6,0-15.6-7-15.6-15.6c0-8.6,7-15.6,15.6-15.6c8.6,0,15.6,7,15.6,15.6C233.6,47.9,226.6,54.9,218,54.9z"/>
<g>
	<polygon class="st0" points="29.2,43.1 24.8,38.6 29,37.1 19.9,34.7 22.3,43.8 23.8,39.5 28.3,44 	"/>
	<g>
		<path class="st1" d="M24.4,48.9c-5.3,0-9.7-4.3-9.7-9.7s4.3-9.7,9.7-9.7c5.3,0,9.7,4.3,9.7,9.7S29.8,48.9,24.4,48.9z M24.4,31.1
			c-4.5,0-8.2,3.7-8.2,8.2s3.7,8.2,8.2,8.2c4.5,0,8.2-3.7,8.2-8.2S29,31.1,24.4,31.1z"/>
	</g>
</g>
<path class="st0" d="M24.3,14.9C10.9,14.9,0,25.8,0,39.2s10.9,24.3,24.3,24.3c13.4,0,24.3-10.9,24.3-24.3S37.8,14.9,24.3,14.9z
	 M24.3,54.9c-8.6,0-15.6-7-15.6-15.6c0-8.6,7-15.6,15.6-15.6c8.6,0,15.6,7,15.6,15.6C40,47.9,33,54.9,24.3,54.9z"/>
<rect x="233.5" y="15.7" class="st0" width="10.8" height="47.1"/>
<g>
	<path class="st3" d="M21.4,74l-2.5-4.8h0.8h0.8l1.7,3.6l0,0l1.7-3.6h0.8h0.8L22.8,74v2.9h-0.7h-0.7V74z"/>
	<path class="st3" d="M30.4,75.8c-0.8-0.8-1.2-1.7-1.2-2.8c0-1.1,0.4-2,1.2-2.8s1.7-1.2,2.8-1.2c1.1,0,2.1,0.4,2.8,1.2
		c0.8,0.8,1.2,1.7,1.2,2.8c0,1.1-0.4,2-1.2,2.8c-0.8,0.8-1.7,1.2-2.8,1.2C32.1,77,31.2,76.6,30.4,75.8z M35.1,74.9
		c0.5-0.5,0.8-1.1,0.8-1.9c0-0.7-0.3-1.4-0.8-1.9c-0.5-0.5-1.1-0.8-1.8-0.8s-1.3,0.3-1.8,0.8c-0.5,0.5-0.8,1.1-0.8,1.9
		c0,0.7,0.2,1.4,0.8,1.9s1.1,0.8,1.8,0.8S34.6,75.4,35.1,74.9z"/>
	<path class="st3" d="M47.2,74c0,1-0.2,1.7-0.7,2.2c-0.5,0.5-1.2,0.8-2,0.8c-0.9,0-1.6-0.3-2-0.8c-0.5-0.5-0.7-1.3-0.7-2.2v-4.8h0.7
		h0.7V74c0,0.5,0.1,1,0.3,1.2c0.2,0.3,0.6,0.4,1,0.4c0.4,0,0.8-0.1,1-0.4c0.2-0.3,0.3-0.7,0.3-1.2v-4.9h0.7h0.7V74z"/>
	<path class="st3" d="M51.9,69.2h0.7h1.5c0.9,0,1.6,0.2,2.1,0.6c0.5,0.4,0.8,1,0.8,1.7c0,0.8-0.3,1.5-0.8,1.9
		c-0.3,0.3-0.7,0.4-1.2,0.6l2.1,2.8h-0.8h-0.8l-2.1-3.1v3.1h-0.7h-0.7V69.2z M53.3,72.8h0.7c0.5,0,0.9-0.1,1.2-0.3
		c0.3-0.2,0.4-0.5,0.4-0.9c0-0.4-0.1-0.7-0.4-0.9s-0.6-0.3-1.2-0.3h-0.7V72.8z"/>
	<path class="st3" d="M68.7,70.5h-1.4v-0.7v-0.7h4.3v0.7v0.7h-1.4v6.3h-0.7h-0.7V70.5z"/>
	<path class="st3" d="M75.7,69.2h0.7H78c0.9,0,1.6,0.2,2.1,0.6c0.5,0.4,0.8,1,0.8,1.7c0,0.8-0.3,1.5-0.8,1.9
		c-0.3,0.3-0.7,0.4-1.2,0.6l2.1,2.8h-0.8h-0.8l-2.1-3.1v3.1h-0.7h-0.7V69.2z M77.2,72.8h0.7c0.5,0,0.9-0.1,1.2-0.3
		c0.3-0.2,0.4-0.5,0.4-0.9c0-0.4-0.1-0.7-0.4-0.9s-0.6-0.3-1.2-0.3h-0.7V72.8z"/>
	<path class="st3" d="M90.7,74c0,1-0.2,1.7-0.7,2.2c-0.5,0.5-1.2,0.8-2,0.8c-0.9,0-1.6-0.3-2-0.8c-0.5-0.5-0.7-1.3-0.7-2.2v-4.8h0.7
		h0.7V74c0,0.5,0.1,1,0.3,1.2c0.2,0.3,0.6,0.4,1,0.4c0.4,0,0.8-0.1,1-0.4c0.2-0.3,0.3-0.7,0.3-1.2v-4.9H90h0.7V74z"/>
	<path class="st3" d="M98.2,71.2c0-0.3-0.1-0.5-0.3-0.6c-0.1-0.1-0.3-0.2-0.6-0.2c-0.2,0-0.4,0.1-0.6,0.2s-0.2,0.3-0.2,0.6
		c0,0.2,0.1,0.4,0.2,0.6c0.1,0.1,0.4,0.3,0.9,0.4c0.8,0.3,1.4,0.6,1.7,1c0.3,0.4,0.5,0.9,0.5,1.5c0,0.7-0.2,1.3-0.7,1.8
		c-0.5,0.5-1.1,0.7-1.8,0.7c-0.7,0-1.3-0.2-1.7-0.6c-0.5-0.4-0.7-1-0.8-1.7h1.5c0,0.3,0.1,0.6,0.3,0.8c0.2,0.2,0.4,0.3,0.7,0.3
		c0.3,0,0.6-0.1,0.8-0.3s0.3-0.4,0.3-0.7c0-0.3-0.1-0.6-0.3-0.7c-0.2-0.2-0.6-0.4-1.1-0.5c-0.7-0.2-1.2-0.5-1.5-0.9
		c-0.3-0.3-0.4-0.8-0.4-1.4c0-0.6,0.2-1.2,0.6-1.6c0.4-0.4,1-0.6,1.6-0.6c0.6,0,1.1,0.2,1.6,0.6c0.4,0.4,0.7,0.9,0.7,1.6H98.2z"/>
	<path class="st3" d="M105.2,70.5h-1.4v-0.7v-0.7h4.3v0.7v0.7h-1.4v6.3h-0.7h-0.7V70.5z"/>
	<path class="st3" d="M112.3,76.1v-0.7h0.7h0.7v1.4c0,0.4-0.1,0.8-0.3,1c-0.2,0.2-0.6,0.4-1,0.4v-0.7c0.3,0,0.5-0.1,0.6-0.3
		c0-0.1,0.1-0.3,0-0.5h-0.6V76.1z"/>
	<path class="st3" d="M125.9,75.8c-0.8-0.8-1.2-1.7-1.2-2.8c0-1.1,0.4-2,1.2-2.8s1.7-1.2,2.8-1.2c1.1,0,2.1,0.4,2.8,1.2
		c0.8,0.8,1.2,1.7,1.2,2.8c0,1.1-0.4,2-1.2,2.8c-0.8,0.8-1.7,1.2-2.8,1.2C127.6,77,126.7,76.6,125.9,75.8z M130.6,74.9
		c0.5-0.5,0.8-1.1,0.8-1.9c0-0.7-0.3-1.4-0.8-1.9c-0.5-0.5-1.1-0.8-1.8-0.8s-1.3,0.3-1.8,0.8c-0.5,0.5-0.8,1.1-0.8,1.9
		c0,0.7,0.2,1.4,0.8,1.9s1.1,0.8,1.8,0.8S130.1,75.4,130.6,74.9z"/>
	<path class="st3" d="M142.7,74c0,1-0.2,1.7-0.7,2.2c-0.5,0.5-1.2,0.8-2,0.8c-0.9,0-1.6-0.3-2-0.8c-0.5-0.5-0.7-1.3-0.7-2.2v-4.8
		h0.7h0.7V74c0,0.5,0.1,1,0.3,1.2c0.2,0.3,0.6,0.4,1,0.4c0.4,0,0.8-0.1,1-0.4c0.2-0.3,0.3-0.7,0.3-1.2v-4.9h0.7h0.7V74z"/>
	<path class="st3" d="M147.4,69.2h0.7h1.5c0.9,0,1.6,0.2,2.1,0.6s0.8,1,0.8,1.7c0,0.8-0.3,1.5-0.8,1.9c-0.3,0.3-0.7,0.4-1.2,0.6
		l2.1,2.8h-0.8h-0.8l-2.1-3.1v3.1h-0.7h-0.7V69.2z M148.8,72.8h0.7c0.5,0,0.9-0.1,1.2-0.3c0.3-0.2,0.4-0.5,0.4-0.9
		c0-0.4-0.1-0.7-0.4-0.9s-0.6-0.3-1.2-0.3h-0.7V72.8z"/>
	<path class="st3" d="M163.5,69.2h0.7h1.3c0.9,0,1.6,0.2,2.1,0.6c0.5,0.4,0.8,1,0.8,1.7c0,0.8-0.2,1.4-0.7,1.8s-1.2,0.6-2.1,0.6
		h-0.6v2.9h-0.7h-0.7V69.2z M164.9,72.6h0.6c0.5,0,0.8-0.1,1.1-0.3c0.2-0.2,0.4-0.4,0.4-0.8s-0.1-0.6-0.4-0.8s-0.6-0.3-1.1-0.3h-0.6
		V72.6z"/>
	<path class="st3" d="M173.6,75.8c-0.8-0.8-1.2-1.7-1.2-2.8c0-1.1,0.4-2,1.2-2.8c0.8-0.8,1.7-1.2,2.8-1.2c1.1,0,2.1,0.4,2.8,1.2
		c0.8,0.8,1.2,1.7,1.2,2.8c0,1.1-0.4,2-1.2,2.8c-0.8,0.8-1.7,1.2-2.8,1.2C175.3,77,174.3,76.6,173.6,75.8z M178.2,74.9
		c0.5-0.5,0.8-1.1,0.8-1.9c0-0.7-0.3-1.4-0.8-1.9c-0.5-0.5-1.1-0.8-1.8-0.8s-1.3,0.3-1.8,0.8c-0.5,0.5-0.8,1.1-0.8,1.9
		c0,0.7,0.2,1.4,0.8,1.9s1.1,0.8,1.8,0.8S177.7,75.4,178.2,74.9z"/>
	<path class="st3" d="M185,76.8v-7.7h0.7h0.7v6.3h2.3v0.7v0.7H185z"/>
	<path class="st3" d="M193.1,69.2h0.7h0.7v7.7h-0.7h-0.7V69.2z"/>
	<path class="st3" d="M206.7,74.7c-0.3,0.7-0.8,1.3-1.4,1.7c-0.7,0.4-1.4,0.6-2.2,0.6c-1.1,0-2-0.4-2.8-1.2s-1.2-1.7-1.2-2.8
		c0-1.1,0.4-2,1.2-2.8s1.7-1.2,2.8-1.2c0.8,0,1.5,0.2,2.2,0.6c0.7,0.4,1.1,1,1.4,1.7h-1.6c-0.2-0.3-0.5-0.6-0.9-0.7
		c-0.4-0.2-0.8-0.3-1.1-0.3c-0.7,0-1.3,0.3-1.7,0.8c-0.5,0.5-0.7,1.1-0.7,1.8c0,0.8,0.3,1.4,0.8,1.9c0.5,0.5,1.1,0.8,1.8,0.8
		c0.4,0,0.7-0.1,1.1-0.3c0.3-0.2,0.6-0.4,0.9-0.7H206.7z"/>
	<path class="st3" d="M212.9,74l-2.5-4.8h0.8h0.8l1.7,3.6l0,0l1.7-3.6h0.8h0.8l-2.5,4.8v2.9h-0.7h-0.7V74z"/>
</g>
</svg>
