<?xml version="1.0" encoding="utf-8"?>
<!-- Generator: Adobe Illustrator 26.1.0, SVG Export Plug-In . SVG Version: 6.00 Build 0)  -->
<svg version="1.1" id="Layer_1" xmlns="http://www.w3.org/2000/svg" xmlns:xlink="http://www.w3.org/1999/xlink" x="0px" y="0px"
	 viewBox="0 0 24.6 27.5" style="enable-background:new 0 0 24.6 27.5;" xml:space="preserve">
<g>
	<path d="M15.3,24.4L15.3,24.4L15.3,24.4c-0.4,1-0.7,2-0.8,3.1l9.3-2c0.4-1,0.7-2,0.8-3.1L15.3,24.4z"/>
	<path d="M23.8,19.6c0.4-1,0.7-2,0.8-3.1L17.4,18l0-3l6.4-1.4c0.4-1,0.7-2,0.8-3.1l-7.2,1.5l0-10.7c-1.1,0.6-2.1,1.5-2.9,2.4l0,8.8
		l-2.9,0.6l0-13.3c-1.1,0.6-2.1,1.5-2.9,2.4l0,11.5l-6.5,1.4c-0.4,1-0.7,2-0.8,3.1l7.3-1.6l0,3.7l-7.9,1.7c-0.4,1-0.7,2-0.8,3.1
		l8.2-1.7c0.7-0.1,1.2-0.5,1.6-1.1l1.5-2.2l0,0c0.2-0.2,0.2-0.5,0.2-0.8l0-3.3l2.9-0.6l0,5.9L23.8,19.6z"/>
</g>
</svg>
